<svg width="50" height="50" viewBox="0 0 50 50" fill="none" xmlns="http://www.w3.org/2000/svg">
<rect width="50" height="50" fill="#6625FF"/>
<path d="M22.6364 13.7273V37H17.3636L8.95455 24.7727H8.81818V37H2.5V13.7273H7.86364L16.1364 25.9091H16.3182V13.7273H22.6364ZM40.7386 21.4091C40.6402 21.0076 40.4848 20.6553 40.2727 20.3523C40.0606 20.0417 39.7955 19.7803 39.4773 19.5682C39.1667 19.3485 38.803 19.1856 38.3864 19.0795C37.9773 18.9659 37.5265 18.9091 37.0341 18.9091C35.9735 18.9091 35.0682 19.1629 34.3182 19.6705C33.5758 20.178 33.0076 20.9091 32.6136 21.8636C32.2273 22.8182 32.0341 23.9697 32.0341 25.3182C32.0341 26.6818 32.2197 27.8485 32.5909 28.8182C32.9621 29.7879 33.5152 30.5303 34.25 31.0455C34.9848 31.5606 35.8977 31.8182 36.9886 31.8182C37.9508 31.8182 38.75 31.678 39.3864 31.3977C40.0303 31.1174 40.5114 30.7197 40.8295 30.2045C41.1477 29.6894 41.3068 29.0833 41.3068 28.3864L42.3977 28.5H37.0795V24H47.3977V27.2273C47.3977 29.3485 46.947 31.1629 46.0455 32.6705C45.1515 34.1705 43.9167 35.322 42.3409 36.125C40.7727 36.9205 38.9735 37.3182 36.9432 37.3182C34.678 37.3182 32.6894 36.8371 30.9773 35.875C29.2652 34.9129 27.928 33.5417 26.9659 31.7614C26.0114 29.9811 25.5341 27.8636 25.5341 25.4091C25.5341 23.4848 25.8258 21.7803 26.4091 20.2955C27 18.8106 27.8182 17.5568 28.8636 16.5341C29.9091 15.5038 31.1174 14.7273 32.4886 14.2045C33.8598 13.6742 35.3295 13.4091 36.8977 13.4091C38.2765 13.4091 39.5568 13.6061 40.7386 14C41.928 14.3864 42.9773 14.9394 43.8864 15.6591C44.803 16.3712 45.5417 17.2159 46.1023 18.1932C46.6629 19.1705 47.0038 20.2424 47.125 21.4091H40.7386Z" fill="white"/>
</svg>
